<svg width="97" height="98" viewBox="0 0 97 98" fill="none" xmlns="http://www.w3.org/2000/svg">
<path d="M0.364868 39.8702C0.364868 45.3385 1.39713 50.4764 3.46167 55.2839C5.52613 60.0914 8.38034 64.3185 12.0243 67.9653C15.6682 71.6121 19.8867 74.4591 24.6797 76.5063C29.4727 78.5534 34.6179 79.577 40.1152 79.577C44.1689 79.577 48.0454 78.9861 51.7446 77.8044C55.4438 76.6227 58.8491 74.9702 61.9606 72.8469L84.3958 95.3342C85.1206 96.0358 85.932 96.5545 86.83 96.8902C87.7279 97.226 88.6533 97.3939 89.6061 97.3939C91.6921 97.3939 93.4034 96.7024 94.7401 95.3195C96.0761 93.9366 96.7441 92.2169 96.7441 90.1605C96.7441 89.1915 96.5704 88.2701 96.2231 87.3963C95.8757 86.5226 95.3767 85.7431 94.7261 85.0578L72.4186 62.7071C74.7496 59.5115 76.5648 55.9703 77.8643 52.0836C79.1637 48.1969 79.8135 44.1258 79.8135 39.8702C79.8135 34.3785 78.7826 29.2362 76.721 24.4433C74.6594 19.6503 71.8138 15.4304 68.1844 11.7836C64.5548 8.13682 60.3349 5.28258 55.5247 3.22092C50.7143 1.15925 45.5778 0.128418 40.1152 0.128418C34.6179 0.128418 29.4727 1.15925 24.6797 3.22092C19.8867 5.28258 15.6682 8.13682 12.0243 11.7836C8.38034 15.4304 5.52613 19.6503 3.46167 24.4433C1.39713 29.2362 0.364868 34.3785 0.364868 39.8702ZM10.7315 39.8702C10.7315 35.8167 11.4868 32.014 12.9976 28.4621C14.5082 24.9102 16.6148 21.7904 19.3172 19.1024C22.0196 16.4146 25.1467 14.308 28.6987 12.7828C32.2505 11.2576 36.056 10.495 40.1152 10.495C44.1686 10.495 47.964 11.2576 51.5014 12.7828C55.0388 14.308 58.1587 16.4146 60.8611 19.1024C63.5635 21.7904 65.6773 24.9102 67.2025 28.4621C68.7277 32.014 69.4903 35.8167 69.4903 39.8702C69.4903 43.9293 68.7277 47.7275 67.2025 51.2649C65.6773 54.8024 63.5635 57.9223 60.8611 60.6246C58.1587 63.327 55.0388 65.4408 51.5014 66.966C47.964 68.4912 44.1686 69.2538 40.1152 69.2538C36.056 69.2538 32.2505 68.4912 28.6987 66.966C25.1467 65.4408 22.0196 63.327 19.3172 60.6246C16.6148 57.9223 14.5082 54.8024 12.9976 51.2649C11.4868 47.7275 10.7315 43.9293 10.7315 39.8702Z" fill="black"/>
</svg>
