<svg width="133" height="133" viewBox="0 0 133 133" fill="none" xmlns="http://www.w3.org/2000/svg">
<path d="M26.318 110.16H82.3214C87.427 110.16 91.2564 108.899 93.8096 106.377C96.3628 103.855 97.6394 100.079 97.6394 95.049V47.3192C97.6394 42.2896 96.3628 38.5137 93.8096 35.9915C91.2564 33.4694 87.427 32.2083 82.3214 32.2083H59.1416V68.3179C59.1416 69.6092 58.6668 70.7228 57.7173 71.6585C56.7678 72.5942 55.6267 73.062 54.2938 73.062C52.9955 73.062 51.8629 72.5942 50.8961 71.6585C49.9294 70.7228 49.446 69.6092 49.446 68.3179V32.2083H26.318C21.2397 32.2083 17.4172 33.4659 14.8503 35.981C12.2834 38.4961 11 42.2755 11 47.3192V95.049C11 100.086 12.2834 103.863 14.8503 106.382C17.4172 108.901 21.2397 110.16 26.318 110.16ZM54.8445 132.764H106.707C111.82 132.764 115.651 131.506 118.2 128.991C120.75 126.476 122.025 122.696 122.025 117.653V68.95C122.025 63.9063 120.75 60.1269 118.2 57.6118C115.651 55.0967 111.82 53.8391 106.707 53.8391H104.317V95.7642C104.317 100.385 103.508 104.258 101.889 107.385C100.27 110.512 97.8892 112.867 94.7454 114.451C91.6015 116.035 87.6984 116.827 83.0363 116.827H39.5266V117.342C39.5266 122.441 40.7669 126.286 43.2475 128.877C45.7282 131.468 49.5938 132.764 54.8445 132.764ZM54.3044 36.0314C55.3613 36.0314 56.2799 35.6584 57.0604 34.9125C57.8409 34.1665 58.2311 33.2823 58.2311 32.26V18.013L57.9101 10.7253L61.181 14.162L68.5831 22.0817C69.2534 22.8556 70.1342 23.2425 71.2256 23.2425C72.2338 23.2425 73.085 22.9212 73.7793 22.2787C74.4735 21.6362 74.8206 20.8073 74.8206 19.792C74.8206 18.8457 74.42 17.9892 73.6189 17.2225L57.1326 1.29501C56.6631 0.832339 56.2003 0.501003 55.7444 0.301003C55.2885 0.100336 54.8085 0 54.3044 0C53.8277 0 53.3631 0.100336 52.9107 0.301003C52.4584 0.501003 51.9974 0.832339 51.5277 1.29501L34.9793 17.2225C34.2126 17.9892 33.8292 18.8457 33.8292 19.792C33.8292 20.8073 34.1659 21.6362 34.8394 22.2787C35.5129 22.9212 36.3573 23.2425 37.3726 23.2425C38.4639 23.2425 39.3584 22.8556 40.0562 22.0817L47.4689 14.162L50.7504 10.7146L50.4294 18.013V32.26C50.4294 33.2823 50.8196 34.1665 51.6001 34.9125C52.3806 35.6584 53.282 36.0314 54.3044 36.0314Z" fill="black"/>
</svg>
