<svg width="128" height="128" viewBox="0 0 128 128" fill="none" xmlns="http://www.w3.org/2000/svg">
<path d="M8 90.2217C8 95.2584 9.28343 99.0361 11.8503 101.555C14.4172 104.073 18.2397 105.333 23.318 105.333H79.3214C84.427 105.333 88.2564 104.072 90.8096 101.549C93.3628 99.0272 94.6394 95.2513 94.6394 90.2217V42.4919C94.6394 37.4623 93.3628 33.6864 90.8096 31.1642C88.2564 28.6421 84.427 27.381 79.3214 27.381H55.2311V3.761C55.2311 2.74567 54.8409 1.865 54.0604 1.119C53.2799 0.373003 52.3613 0 51.3044 0C50.282 0 49.3806 0.373003 48.6001 1.119C47.8196 1.865 47.4294 2.74567 47.4294 3.761V27.381H23.318C18.2397 27.381 14.4172 28.6386 11.8503 31.1537C9.28343 33.6688 8 37.4482 8 42.4919V90.2217ZM51.3044 73.894C50.8277 73.894 50.3631 73.7938 49.9107 73.5935C49.4584 73.3932 48.9974 73.0617 48.5277 72.5992L31.9793 56.6717C31.2126 55.905 30.8292 55.0485 30.8292 54.1022C30.8292 53.0869 31.1659 52.258 31.8394 51.6155C32.5129 50.973 33.3573 50.6517 34.3726 50.6517C35.4639 50.6517 36.3584 51.0386 37.0562 51.8125L45.3416 60.6154L47.7504 63.1794L47.4294 55.8812V30.7902C47.4294 29.6644 47.7938 28.763 48.5225 28.086C49.2512 27.4089 50.1785 27.0704 51.3044 27.0704C52.4647 27.0704 53.4092 27.4089 54.1379 28.086C54.8667 28.763 55.2311 29.6644 55.2311 30.7902V55.8812L54.9101 63.1689L57.3082 60.6154L65.5831 51.8125C66.2534 51.0386 67.1342 50.6517 68.2256 50.6517C69.2338 50.6517 70.085 50.973 70.7793 51.6155C71.4735 52.258 71.8206 53.0869 71.8206 54.1022C71.8206 55.0485 71.42 55.905 70.6189 56.6717L54.1326 72.5992C53.6631 73.0617 53.2003 73.3932 52.7444 73.5935C52.2885 73.7938 51.8085 73.894 51.3044 73.894ZM51.8445 127.936H103.707C108.82 127.936 112.651 126.679 115.2 124.164C117.75 121.648 119.025 117.869 119.025 112.825V64.1227C119.025 59.079 117.75 55.2996 115.2 52.7845C112.651 50.2694 108.82 49.0118 103.707 49.0118H101.317V90.9369C101.317 95.5574 100.508 99.431 98.8891 102.558C97.2704 105.684 94.8892 108.04 91.7454 109.624C88.6015 111.208 84.6984 112 80.0363 112H36.5266V112.515C36.5266 117.614 37.7669 121.458 40.2475 124.05C42.7282 126.641 46.5938 127.936 51.8445 127.936Z" fill="black"/>
</svg>
