<svg width="100" height="101" viewBox="0 0 100 101" fill="none" xmlns="http://www.w3.org/2000/svg">
<path d="M49.8119 100.509C56.6465 100.509 63.0638 99.2156 69.0638 96.6291C75.0638 94.0426 80.3568 90.4478 84.9427 85.8449C89.5289 81.242 93.1256 75.9405 95.7329 69.9405C98.3403 63.9404 99.6439 57.5401 99.6439 50.7396C99.6439 43.939 98.3403 37.5387 95.7329 31.5386C93.1256 25.5386 89.5204 20.2371 84.9172 15.6342C80.3144 11.0313 75.0129 7.43655 69.0128 4.85001C63.0128 2.26348 56.5955 0.970215 49.7609 0.970215C42.9679 0.970215 36.5695 2.26348 30.5657 4.85001C24.5619 7.43655 19.2774 11.0313 14.7122 15.6342C10.1471 20.2371 6.56088 25.5386 3.95354 31.5386C1.34625 37.5387 0.0426025 43.939 0.0426025 50.7396C0.0426025 57.5401 1.34625 63.9404 3.95354 69.9405C6.56088 75.9405 10.1556 81.242 14.7377 85.8449C19.3199 90.4478 24.6129 94.0426 30.6167 96.6291C36.6205 99.2156 43.0189 100.509 49.8119 100.509ZM49.8119 92.2412C44.0722 92.2412 38.6978 91.1735 33.6887 89.0381C28.6797 86.9027 24.2824 83.9337 20.4968 80.1311C16.7112 76.3285 13.7488 71.9142 11.6096 66.8882C9.47044 61.8621 8.40084 56.4793 8.40084 50.7396C8.40084 44.9999 9.46194 39.617 11.5841 34.5909C13.7064 29.5649 16.6603 25.1506 20.4458 21.348C24.2314 17.5454 28.6288 14.5764 33.6378 12.441C38.6469 10.3056 44.0213 9.23792 49.7609 9.23792C55.5347 9.23792 60.9364 10.3056 65.9662 12.441C70.996 14.5764 75.4122 17.5454 79.2148 21.348C83.0174 25.1506 85.9864 29.5649 88.1218 34.5909C90.2572 39.617 91.3249 44.9999 91.3249 50.7396C91.3249 56.4793 90.2572 61.8621 88.1218 66.8882C85.9864 71.9142 83.0174 76.3285 79.2148 80.1311C75.4122 83.9337 71.0064 86.9027 65.9974 89.0381C60.9884 91.1735 55.5932 92.2412 49.8119 92.2412ZM35.2045 73.0785C36.0049 73.0785 36.6703 72.9209 37.2007 72.6056C37.7311 72.2904 38.304 71.6986 38.9194 70.8303L49.4721 55.8307H49.6704L60.2118 70.8303C60.812 71.6986 61.3689 72.2904 61.8823 72.6056C62.3957 72.9209 63.0432 73.0785 63.8247 73.0785C64.9384 73.0785 65.851 72.7482 66.5626 72.0875C67.2743 71.4269 67.6301 70.583 67.6301 69.5561C67.6301 68.6614 67.3394 67.8064 66.758 66.9909L54.4894 50.2809L66.843 33.4577C67.4508 32.6422 67.7547 31.7871 67.7547 30.8924C67.7547 29.9147 67.4008 29.1058 66.6929 28.4659C65.9851 27.826 65.1177 27.5061 64.0908 27.5061C63.3245 27.5061 62.678 27.6618 62.1513 27.9732C61.6247 28.2847 61.0876 28.8406 60.5402 29.641L50.3442 44.7029H50.095L39.6782 29.59C39.1308 28.8236 38.5834 28.2847 38.0359 27.9732C37.4885 27.6618 36.8109 27.5061 36.003 27.5061C34.9497 27.5061 34.0521 27.8515 33.3103 28.5424C32.5685 29.2333 32.1975 30.0751 32.1975 31.068C32.1975 32.0043 32.543 32.9481 33.2338 33.8994L44.9192 50.0261L32.475 67.206C31.9201 68.0291 31.6426 68.8748 31.6426 69.7431C31.6426 70.6869 31.9881 71.4787 32.6789 72.1186C33.3698 72.7585 34.2117 73.0785 35.2045 73.0785Z" fill="white"/>
</svg>
